<svg width="21" height="20" viewBox="0 0 21 20" fill="none" xmlns="http://www.w3.org/2000/svg">
<path fill-rule="evenodd" clip-rule="evenodd" d="M13.9938 4.99967C14.6107 4.99967 15.1493 4.66451 15.4375 4.16634H17.3271C17.7874 4.16634 18.1605 4.53944 18.1605 4.99967V6.77136C16.7228 7.14139 15.6605 8.44651 15.6605 9.99967C15.6605 11.5528 16.7228 12.8579 18.1605 13.228V14.9997C18.1605 15.4599 17.7874 15.833 17.3271 15.833H15.4375C15.1493 15.3348 14.6107 14.9997 13.9938 14.9997C13.3769 14.9997 12.8383 15.3348 12.5501 15.833H3.99382C3.53358 15.833 3.16048 15.4599 3.16048 14.9997V13.228C4.59817 12.8579 5.66048 11.5528 5.66048 9.99967C5.66048 8.44651 4.59817 7.14139 3.16048 6.77136V4.99967C3.16048 4.53944 3.53358 4.16634 3.99382 4.16634H12.5501C12.8383 4.66451 13.3769 4.99967 13.9938 4.99967ZM16.4938 9.99967C16.4938 8.61892 17.6131 7.49967 18.9938 7.49967V4.99967C18.9938 4.0792 18.2476 3.33301 17.3271 3.33301H14.8271C14.8271 3.79324 14.4541 4.16634 13.9938 4.16634C13.5336 4.16634 13.1605 3.79324 13.1605 3.33301H3.99382C3.07334 3.33301 2.32715 4.0792 2.32715 4.99967V7.49967C3.70786 7.49967 4.82715 8.61892 4.82715 9.99967C4.82715 11.3804 3.70786 12.4997 2.32715 12.4997V14.9997C2.32715 15.9202 3.07334 16.6663 3.99382 16.6663H13.1605C13.1605 16.2061 13.5336 15.833 13.9938 15.833C14.4541 15.833 14.8271 16.2061 14.8271 16.6663H17.3271C18.2476 16.6663 18.9938 15.9202 18.9938 14.9997V12.4997C17.6131 12.4997 16.4938 11.3804 16.4938 9.99967ZM13.9938 7.49967C14.4541 7.49967 14.8271 7.12658 14.8271 6.66634C14.8271 6.20611 14.4541 5.83301 13.9938 5.83301C13.5336 5.83301 13.1605 6.20611 13.1605 6.66634C13.1605 7.12658 13.5336 7.49967 13.9938 7.49967ZM13.9938 10.833C14.4541 10.833 14.8271 10.4599 14.8271 9.99967C14.8271 9.53942 14.4541 9.16634 13.9938 9.16634C13.5336 9.16634 13.1605 9.53942 13.1605 9.99967C13.1605 10.4599 13.5336 10.833 13.9938 10.833ZM14.8271 13.333C14.8271 13.7933 14.4541 14.1663 13.9938 14.1663C13.5336 14.1663 13.1605 13.7933 13.1605 13.333C13.1605 12.8728 13.5336 12.4997 13.9938 12.4997C14.4541 12.4997 14.8271 12.8728 14.8271 13.333Z" fill="#707070"/>
</svg>
